<svg width="24" height="24" viewBox="0 0 24 24" fill="none" xmlns="http://www.w3.org/2000/svg">
<path d="M0 12C0 8.27247 0 6.4087 0.608964 4.93853C1.42092 2.97831 2.97831 1.42092 4.93853 0.608964C6.4087 0 8.27247 0 12 0C15.7275 0 17.5913 0 19.0615 0.608964C21.0217 1.42092 22.5791 2.97831 23.391 4.93853C24 6.4087 24 8.27247 24 12C24 15.7275 24 17.5913 23.391 19.0615C22.5791 21.0217 21.0217 22.5791 19.0615 23.391C17.5913 24 15.7275 24 12 24C8.27247 24 6.4087 24 4.93853 23.391C2.97831 22.5791 1.42092 21.0217 0.608964 19.0615C0 17.5913 0 15.7275 0 12Z" fill="#E5ECF6"/>
<path d="M18.4325 17.25C17.4806 15.6044 16.0137 14.4244 14.3019 13.865C15.1486 13.3609 15.8065 12.5928 16.1745 11.6786C16.5425 10.7644 16.6002 9.75474 16.3388 8.80459C16.0774 7.85444 15.5113 7.01636 14.7275 6.41907C13.9437 5.82178 12.9854 5.49829 12 5.49829C11.0145 5.49829 10.0563 5.82178 9.2725 6.41907C8.48869 7.01636 7.92261 7.85444 7.6612 8.80459C7.39979 9.75474 7.4575 10.7644 7.82548 11.6786C8.19345 12.5928 8.85134 13.3609 9.69811 13.865C7.98624 14.4237 6.51936 15.6037 5.56749 17.25C5.53258 17.3069 5.50943 17.3702 5.49939 17.4363C5.48936 17.5023 5.49265 17.5696 5.50906 17.6343C5.52548 17.6991 5.55469 17.7598 5.59498 17.8131C5.63527 17.8663 5.68581 17.911 5.74363 17.9444C5.80144 17.9778 5.86536 17.9992 5.93162 18.0075C5.99787 18.0158 6.06511 18.0108 6.12937 17.9926C6.19364 17.9745 6.25362 17.9437 6.30579 17.902C6.35796 17.8604 6.40125 17.8087 6.43311 17.75C7.61061 15.715 9.69186 14.5 12 14.5C14.3081 14.5 16.3894 15.715 17.5669 17.75C17.5987 17.8087 17.642 17.8604 17.6942 17.902C17.7463 17.9437 17.8063 17.9745 17.8706 17.9926C17.9349 18.0108 18.0021 18.0158 18.0684 18.0075C18.1346 17.9992 18.1985 17.9778 18.2563 17.9444C18.3142 17.911 18.3647 17.8663 18.405 17.8131C18.4453 17.7598 18.4745 17.6991 18.4909 17.6343C18.5073 17.5696 18.5106 17.5023 18.5006 17.4363C18.4905 17.3702 18.4674 17.3069 18.4325 17.25ZM8.49999 9.99999C8.49999 9.30776 8.70526 8.63107 9.08984 8.0555C9.47443 7.47992 10.0211 7.03132 10.6606 6.76641C11.3001 6.50151 12.0039 6.43219 12.6828 6.56724C13.3617 6.70229 13.9854 7.03563 14.4749 7.52512C14.9643 8.0146 15.2977 8.63824 15.4327 9.31718C15.5678 9.99611 15.4985 10.6998 15.2336 11.3394C14.9687 11.9789 14.5201 12.5256 13.9445 12.9101C13.3689 13.2947 12.6922 13.5 12 13.5C11.072 13.499 10.1824 13.1299 9.52621 12.4738C8.87005 11.8176 8.50098 10.9279 8.49999 9.99999Z" fill="#1C1C1C"/>
</svg>
